<?xml version="1.0" standalone="no"?>
<!DOCTYPE svg PUBLIC "-//W3C//DTD SVG 20010904//EN"
 "http://www.w3.org/TR/2001/REC-SVG-20010904/DTD/svg10.dtd">
<svg version="1.0" xmlns="http://www.w3.org/2000/svg"
 width="142.000000pt" height="88.000000pt" viewBox="0 0 142.000000 88.000000"
 preserveAspectRatio="xMidYMid meet">

	<g transform="translate(0.000000,88.000000) scale(0.100000,-0.100000)"
	fill="#000000" stroke="none">
		<path d="M631 671 c-24 -26 -31 -28 -77 -24 -44 5 -54 2 -73 -18 -31 -34 -32
-87 -1 -131 14 -19 16 -28 7 -31 -31 -13 29 -5 168 23 83 16 160 30 173 30 32
0 27 -15 -5 -18 -16 -2 -104 -18 -198 -36 -93 -18 -172 -31 -175 -29 -2 2 2 8
10 13 13 8 12 10 -3 10 -10 0 -20 -6 -23 -14 -5 -14 31 -229 41 -246 4 -6 43
-7 94 -3 71 5 95 3 121 -11 44 -21 67 -20 73 4 4 17 14 20 63 20 76 0 124 30
124 77 l0 32 62 -21 c59 -20 62 -20 75 -3 17 25 17 99 -2 162 -23 78 -35 82
-100 39 -30 -20 -57 -36 -60 -36 -3 0 -5 9 -5 21 0 40 -18 59 -59 59 l-38 0 4
48 c6 56 -16 85 -74 101 -63 18 -93 14 -122 -18z m119 -20 c17 -33 12 -86 -10
-106 -16 -14 -23 -16 -32 -7 -7 7 -27 12 -45 12 -23 0 -33 5 -33 15 0 9 9 15
25 15 18 0 25 5 25 19 0 20 36 71 50 71 5 0 14 -9 20 -19z m-160 -93 c0 -42
-20 -59 -44 -39 -8 7 -27 11 -42 9 -40 -4 -42 20 -2 27 26 5 37 14 46 37 10
26 14 29 27 18 9 -7 15 -29 15 -52z m476 -176 c4 -36 3 -52 -5 -52 -15 0 -27
54 -22 110 3 39 18 5 27 -58z"/>
	</g>
</svg>
