<?xml version="1.0" standalone="no"?>
<!DOCTYPE svg PUBLIC "-//W3C//DTD SVG 20010904//EN"
 "http://www.w3.org/TR/2001/REC-SVG-20010904/DTD/svg10.dtd">
<svg version="1.0" xmlns="http://www.w3.org/2000/svg"
 width="239.000000pt" height="81.000000pt" viewBox="0 0 239.000000 81.000000"
 preserveAspectRatio="xMidYMid meet">

<g transform="translate(0.000000,81.000000) scale(0.100000,-0.100000)"
fill="#000000" stroke="none">
<path d="M1478 760 c-27 -28 -35 -30 -74 -24 -37 5 -46 3 -68 -19 -33 -33 -35
-92 -5 -131 19 -24 19 -26 2 -27 -10 0 -13 -3 -8 -5 6 -2 87 11 180 30 94 19
174 31 178 27 4 -5 -82 -26 -193 -47 -164 -32 -199 -37 -195 -24 5 11 3 12 -5
4 -9 -9 -6 -40 9 -124 12 -62 23 -115 26 -118 2 -3 45 -4 94 -3 134 3 133 5
129 -142 l-3 -122 28 -3 27 -3 0 139 0 140 63 4 c75 4 116 29 117 71 0 32 9
33 74 11 62 -21 71 -12 69 71 -2 58 -31 155 -48 155 -3 0 -29 -16 -58 -35 -60
-41 -67 -42 -67 -14 0 41 -18 59 -60 59 l-39 0 11 31 c8 25 7 38 -5 65 -13 27
-26 36 -68 48 -71 21 -76 21 -111 -14z m112 -19 c16 -30 12 -76 -9 -102 -14
-18 -22 -21 -32 -12 -8 6 -27 13 -43 15 -38 4 -47 28 -12 28 19 0 26 5 26 19
0 20 36 71 50 71 5 0 14 -9 20 -19z m-155 -76 c8 -40 -16 -75 -38 -56 -9 7
-28 11 -43 9 -40 -4 -43 21 -4 29 17 3 34 13 37 22 18 49 38 47 48 -4z m449
-120 c13 -34 18 -113 8 -119 -13 -8 -32 54 -32 102 0 33 14 43 24 17z"/>
<path d="M47 223 c-20 -19 -5 -33 37 -33 53 0 71 -25 30 -40 -14 -6 -31 -10
-38 -10 -21 0 -56 -40 -56 -64 0 -26 28 -56 54 -56 9 0 28 7 41 16 15 10 25
12 25 5 0 -6 19 -11 45 -11 25 0 45 5 45 10 0 6 13 4 30 -5 49 -25 100 -17
100 16 0 13 -7 19 -24 19 -55 0 -78 75 -32 105 13 9 30 14 37 13 8 -2 14 5 14
17 0 15 -8 21 -32 23 -63 6 -109 -51 -101 -126 3 -33 1 -38 -14 -34 -15 3 -18
15 -18 63 0 77 -20 99 -88 99 -27 0 -52 -3 -55 -7z m83 -123 c0 -21 -34 -45
-50 -35 -18 11 -11 35 13 45 33 13 37 12 37 -10z"/>
<path d="M394 207 c-21 -18 -28 -35 -32 -76 -4 -44 -1 -55 18 -76 39 -42 120
-45 120 -4 0 13 -7 19 -24 19 -55 0 -78 75 -32 105 13 8 31 13 40 9 12 -5 16
0 16 20 0 24 -4 26 -39 26 -27 0 -48 -7 -67 -23z"/>
<path d="M535 206 c-30 -30 -39 -65 -31 -112 12 -59 84 -90 151 -64 38 15 26
35 -22 35 -38 0 -73 17 -73 36 0 5 27 9 60 9 43 0 61 4 68 16 8 14 10 14 21 0
8 -9 19 -16 26 -16 7 0 18 -6 24 -14 15 -18 -11 -40 -38 -31 -22 7 -34 -6 -25
-29 13 -35 116 -8 129 34 10 32 -3 57 -40 75 -44 20 -46 45 -5 45 23 0 30 4
30 20 0 17 -7 20 -39 20 -31 0 -44 -6 -63 -28 l-23 -28 -23 28 c-32 37 -92 39
-127 4z m93 -38 c3 -15 -4 -18 -32 -18 -39 0 -39 0 -30 25 9 22 58 16 62 -7z"/>
<path d="M856 209 c-14 -11 -26 -31 -26 -43 0 -23 28 -56 47 -56 6 0 16 -6 22
-14 15 -18 -11 -40 -39 -31 -17 5 -20 2 -20 -19 0 -22 4 -26 30 -26 97 0 134
87 54 125 -40 19 -40 38 -1 43 19 2 27 9 27 23 0 27 -59 26 -94 -2z"/>
<path d="M1027 223 c-13 -12 -7 -33 8 -33 11 0 15 -12 15 -49 0 -83 9 -111 36
-111 22 0 24 4 24 53 0 53 20 97 43 97 8 0 11 -16 9 -48 -3 -36 1 -53 18 -74
36 -46 150 -51 150 -6 0 17 -4 20 -30 14 -37 -7 -80 8 -80 28 0 11 15 16 58
18 56 3 57 4 60 34 2 19 -5 40 -18 57 -27 34 -84 37 -124 6 -21 -16 -26 -17
-26 -5 0 24 -20 29 -39 12 -17 -15 -19 -15 -24 -1 -6 15 -67 22 -80 8z m253
-37 c0 -2 3 -11 6 -20 5 -13 -1 -16 -30 -16 -34 0 -47 15 -29 33 7 8 53 10 53
3z"/>
<path d="M1376 199 c-35 -41 -37 -116 -3 -146 30 -28 60 -36 107 -28 31 5 40
11 40 27 0 17 -5 20 -32 15 -41 -6 -78 8 -78 28 0 12 12 15 55 15 61 0 72 10
61 55 -11 41 -41 65 -85 65 -32 0 -44 -6 -65 -31z m92 -31 c3 -14 -3 -18 -27
-18 -29 0 -41 17 -24 34 13 13 48 1 51 -16z"/>
<path d="M1747 219 c-25 -15 -47 -63 -47 -104 0 -64 66 -111 124 -89 9 3 16
15 16 25 0 14 -7 19 -28 19 -36 0 -52 17 -52 54 0 42 12 56 46 60 21 2 29 9
29 22 0 15 -8 20 -35 21 -19 2 -43 -2 -53 -8z"/>
<path d="M1877 210 c-77 -61 -42 -190 53 -190 64 0 116 65 107 132 -4 33 -3
39 11 36 14 -3 18 -18 20 -81 3 -74 4 -77 27 -77 23 0 25 4 25 50 0 54 15 96
37 104 27 11 33 -4 33 -80 l0 -74 30 0 30 0 0 63 c0 51 4 67 20 82 31 28 45 6
45 -73 0 -66 1 -67 28 -70 l27 -3 0 85 c0 64 -4 88 -16 100 -20 21 -63 20 -86
-1 -17 -15 -19 -15 -36 0 -23 21 -61 22 -89 2 -19 -13 -22 -13 -27 0 -8 21
-75 20 -83 0 -5 -14 -8 -14 -29 0 -33 22 -96 19 -127 -5z m87 -36 c30 -29 13
-104 -23 -104 -42 0 -61 81 -25 107 23 17 29 16 48 -3z"/>
<path d="M1630 75 c-25 -30 15 -70 45 -45 20 16 19 46 -1 54 -23 9 -30 8 -44
-9z"/>
</g>
</svg>
